<svg width="1129" height="663" viewBox="0 0 1129 663" fill="none" xmlns="http://www.w3.org/2000/svg">
  <g clip-path="url(#clip0_6_354)">
    <path d="M321 642C498.283 642 642 498.283 642 321C642 143.717 498.283 0 321 0C143.717 0 0 143.717 0 321C0 498.283 143.717 642 321 642Z" fill="#F2F2F2"/>
    <path d="M559 663C842.874 663 1073 650.688 1073 635.5C1073 620.312 842.874 608 559 608C275.126 608 45 620.312 45 635.5C45 650.688 275.126 663 559 663Z" fill="#3F3D56"/>
    <path opacity="0.2" d="M558 649C812.051 649 1018 639.15 1018 627C1018 614.85 812.051 605 558 605C303.949 605 98 614.85 98 627C98 639.15 303.949 649 558 649Z" fill="black"/>
    <path d="M971 152.5H131V202.5H971V152.5Z" fill="#3F3D56"/>
    <path d="M131 608.83C131 611.676 131.561 614.494 132.65 617.123C133.739 619.752 135.335 622.141 137.347 624.153C139.359 626.165 141.748 627.761 144.377 628.85C147.006 629.939 149.824 630.5 152.67 630.5H949.33C952.176 630.5 954.994 629.939 957.623 628.85C960.252 627.761 962.641 626.165 964.653 624.153C966.665 622.141 968.261 619.752 969.35 617.123C970.439 614.494 971 611.676 971 608.83V177.5H131V608.83Z" fill="#3F3D56"/>
    <path d="M949.33 117.5H152.67C149.824 117.5 147.006 118.061 144.377 119.15C141.748 120.239 139.359 121.835 137.347 123.847C135.335 125.859 133.739 128.248 132.65 130.877C131.561 133.506 131 136.324 131 139.17V177.5H971V139.17C971 136.324 970.439 133.506 969.35 130.877C968.261 128.248 966.665 125.859 964.653 123.847C962.641 121.835 960.252 120.239 957.623 119.15C954.994 118.061 952.176 117.5 949.33 117.5Z" fill="#3F3D56"/>
    <path opacity="0.2" d="M949.33 117.5H152.67C149.824 117.5 147.006 118.061 144.377 119.15C141.748 120.239 139.359 121.835 137.347 123.847C135.335 125.859 133.739 128.248 132.65 130.877C131.561 133.506 131 136.324 131 139.17V177.5H971V139.17C971 136.324 970.439 133.506 969.35 130.877C968.261 128.248 966.665 125.859 964.653 123.847C962.641 121.835 960.252 120.239 957.623 119.15C954.994 118.061 952.176 117.5 949.33 117.5Z" fill="black"/>
    <path d="M181 160.5C188.18 160.5 194 154.68 194 147.5C194 140.32 188.18 134.5 181 134.5C173.82 134.5 168 140.32 168 147.5C168 154.68 173.82 160.5 181 160.5Z" fill="#3F3D56"/>
    <path d="M217 160.5C224.18 160.5 230 154.68 230 147.5C230 140.32 224.18 134.5 217 134.5C209.82 134.5 204 140.32 204 147.5C204 154.68 209.82 160.5 217 160.5Z" fill="#3F3D56"/>
    <path d="M253 160.5C260.18 160.5 266 154.68 266 147.5C266 140.32 260.18 134.5 253 134.5C245.82 134.5 240 140.32 240 147.5C240 154.68 245.82 160.5 253 160.5Z" fill="#3F3D56"/>
    <path d="M499.665 213.5H173.335C170.389 213.5 168 215.889 168 218.835V594.165C168 597.111 170.389 599.5 173.335 599.5H499.665C502.611 599.5 505 597.111 505 594.165V218.835C505 215.889 502.611 213.5 499.665 213.5Z" fill="#606060"/>
    <path d="M881.524 272.5H608.476C605.452 272.5 603 274.952 603 277.976V289.024C603 292.048 605.452 294.5 608.476 294.5H881.524C884.548 294.5 887 292.048 887 289.024V277.976C887 274.952 884.548 272.5 881.524 272.5Z" fill="#6B6DFF"/>
    <path d="M947.524 352.5H542.476C539.452 352.5 537 354.952 537 357.976V362.024C537 365.048 539.452 367.5 542.476 367.5H947.524C950.548 367.5 953 365.048 953 362.024V357.976C953 354.952 950.548 352.5 947.524 352.5Z" fill="#6B6DFF"/>
    <path d="M947.524 396.5H542.476C539.452 396.5 537 398.952 537 401.976V406.024C537 409.048 539.452 411.5 542.476 411.5H947.524C950.548 411.5 953 409.048 953 406.024V401.976C953 398.952 950.548 396.5 947.524 396.5Z" fill="#6B6DFF"/>
    <path d="M947.524 440.5H542.476C539.452 440.5 537 442.952 537 445.976V450.024C537 453.048 539.452 455.5 542.476 455.5H947.524C950.548 455.5 953 453.048 953 450.024V445.976C953 442.952 950.548 440.5 947.524 440.5Z" fill="#6B6DFF"/>
    <path d="M947.524 484.5H542.476C539.452 484.5 537 486.952 537 489.976V494.024C537 497.048 539.452 499.5 542.476 499.5H947.524C950.548 499.5 953 497.048 953 494.024V489.976C953 486.952 950.548 484.5 947.524 484.5Z" fill="#6B6DFF"/>
    <path d="M945.972 552.5H872.028C868.146 552.5 865 555.646 865 559.528V571.472C865 575.354 868.146 578.5 872.028 578.5H945.972C949.854 578.5 953 575.354 953 571.472V559.528C953 555.646 949.854 552.5 945.972 552.5Z" fill="#6B6DFF"/>
    <path d="M1053.1 506.116C1055.76 501.472 1057.14 496.202 1057.09 490.85C1057.09 477.053 1048.54 465.869 1038 465.869C1027.46 465.869 1018.92 477.053 1018.92 490.85C1018.87 496.202 1020.24 501.472 1022.9 506.116C1020.29 510.78 1018.92 516.036 1018.92 521.382C1018.92 526.728 1020.29 531.984 1022.9 536.648C1020.29 541.312 1018.92 546.569 1018.92 551.914C1018.92 557.26 1020.29 562.516 1022.9 567.18C1020.29 571.844 1018.92 577.101 1018.92 582.446C1018.92 587.792 1020.29 593.048 1022.9 597.712C1020.24 602.356 1018.87 607.626 1018.92 612.978C1018.92 626.775 1027.46 637.959 1038 637.959C1048.54 637.959 1057.09 626.775 1057.09 612.978C1057.14 607.626 1055.76 602.356 1053.1 597.712C1055.71 593.048 1057.09 587.792 1057.09 582.446C1057.09 577.101 1055.71 571.844 1053.1 567.18C1055.71 562.516 1057.09 557.26 1057.09 551.914C1057.09 546.569 1055.71 541.312 1053.1 536.648C1055.71 531.984 1057.09 526.728 1057.09 521.382C1057.09 516.036 1055.71 510.78 1053.1 506.116Z" fill="#3F3D56"/>
    <path d="M1038 485.299C1048.54 485.299 1057.09 474.114 1057.09 460.318C1057.09 446.521 1048.54 435.337 1038 435.337C1027.46 435.337 1018.92 446.521 1018.92 460.318C1018.92 474.114 1027.46 485.299 1038 485.299Z" fill="#3F3D56"/>
    <path d="M1038 454.767C1048.54 454.767 1057.09 443.582 1057.09 429.786C1057.09 415.989 1048.54 404.805 1038 404.805C1027.46 404.805 1018.92 415.989 1018.92 429.786C1018.92 443.582 1027.46 454.767 1038 454.767Z" fill="#3F3D56"/>
    <path fill-rule="evenodd" clip-rule="evenodd" d="M1109.44 220.845C1112.05 217.526 1114.42 214.031 1116.55 210.384L1066.4 202.149L1120.63 202.552C1125.84 191.234 1128.67 178.973 1128.97 166.519C1129.27 154.066 1127.03 141.682 1122.38 130.126L1049.62 167.868L1116.72 118.547C1110.43 107.684 1101.98 98.2326 1091.88 90.7803C1081.78 83.3281 1070.26 78.0351 1058.03 75.231C1045.79 72.4269 1033.11 72.1719 1020.78 74.4817C1008.44 76.7916 996.713 81.6168 986.323 88.6569C975.933 95.697 967.105 104.801 960.387 115.402C953.669 126.003 949.206 137.874 947.276 150.275C945.346 162.676 945.99 175.341 949.169 187.482C952.347 199.624 957.991 210.98 965.75 220.845C961.686 226.011 958.191 231.599 955.325 237.514L1020.41 271.329L951.011 248.037C946.139 262.442 944.934 277.835 947.508 292.822C950.081 307.81 956.351 321.919 965.75 333.874C955.145 347.356 948.548 363.551 946.713 380.606C944.878 397.662 947.88 414.889 955.374 430.319C962.869 445.749 974.554 458.759 989.093 467.86C1003.63 476.962 1020.44 481.789 1037.59 481.789C1054.75 481.789 1071.56 476.962 1086.1 467.86C1100.63 458.759 1112.32 445.749 1119.81 430.319C1127.31 414.889 1130.31 397.662 1128.48 380.606C1126.64 363.551 1120.04 347.356 1109.44 333.874C1122.11 317.761 1129 297.858 1129 277.359C1129 256.861 1122.11 236.957 1109.44 220.845Z" fill="#6B6DFF"/>
    <path opacity="0.1" d="M946.189 277.359C946.157 297.863 953.05 317.777 965.75 333.873C955.145 347.356 948.548 363.551 946.713 380.606C944.878 397.662 947.88 414.889 955.374 430.319C962.869 445.749 974.554 458.758 989.093 467.86C1003.63 476.962 1020.44 481.789 1037.59 481.789C1054.75 481.789 1071.56 476.962 1086.1 467.86C1100.64 458.758 1112.32 445.749 1119.81 430.319C1127.31 414.889 1130.31 397.662 1128.48 380.606C1126.64 363.551 1120.04 347.356 1109.44 333.873C1121.69 318.321 946.189 267.1 946.189 277.359Z" fill="black"/>
    <path fill-rule="evenodd" clip-rule="evenodd" d="M330.12 342.936H441.594V388.057H330.12V342.936Z" fill="white"/>
    <path fill-rule="evenodd" clip-rule="evenodd" d="M229.263 490.241C224.607 490.24 220.034 489.013 216.003 486.684C211.972 484.354 208.625 481.004 206.3 476.97C203.962 481.002 202.727 485.579 202.721 490.24C202.715 494.9 203.938 499.48 206.267 503.518C208.596 507.555 211.948 510.907 215.985 513.236C220.022 515.565 224.602 516.788 229.263 516.783H255.804V490.241H229.263Z" fill="#6B6DFF"/>
    <path fill-rule="evenodd" clip-rule="evenodd" d="M348.672 350.071L441.594 344.263V330.993C441.594 327.507 440.908 324.056 439.574 320.836C438.24 317.615 436.285 314.689 433.82 312.225C431.356 309.76 428.43 307.805 425.21 306.471C421.989 305.138 418.538 304.451 415.053 304.451H295.616L292.298 298.705C291.962 298.123 291.479 297.639 290.896 297.302C290.314 296.966 289.653 296.789 288.981 296.789C288.308 296.789 287.648 296.966 287.065 297.302C286.483 297.639 285.999 298.123 285.663 298.705L282.345 304.451L279.028 298.705C278.692 298.123 278.208 297.639 277.626 297.302C277.043 296.966 276.383 296.789 275.71 296.789C275.037 296.789 274.377 296.966 273.794 297.302C273.212 297.639 272.728 298.123 272.392 298.705L269.075 304.451L265.757 298.705C265.421 298.123 264.937 297.639 264.355 297.302C263.773 296.966 263.112 296.789 262.439 296.789C261.767 296.789 261.106 296.966 260.524 297.302C259.941 297.639 259.458 298.123 259.122 298.705L255.804 304.451C255.775 304.451 255.748 304.455 255.718 304.455L250.221 298.96C249.746 298.484 249.154 298.142 248.504 297.968C247.855 297.794 247.171 297.794 246.522 297.968C245.872 298.143 245.28 298.484 244.805 298.96C244.33 299.435 243.988 300.028 243.814 300.677L241.997 307.45L235.107 305.603C234.457 305.429 233.773 305.429 233.124 305.603C232.474 305.777 231.882 306.119 231.406 306.594C230.931 307.07 230.589 307.663 230.415 308.312C230.241 308.962 230.241 309.646 230.416 310.296L232.26 317.187L225.49 319.001C224.84 319.175 224.247 319.517 223.772 319.992C223.296 320.468 222.954 321.06 222.779 321.71C222.605 322.359 222.605 323.043 222.779 323.693C222.953 324.343 223.294 324.935 223.77 325.411L229.267 330.908C229.267 330.936 229.263 330.963 229.263 330.993L223.516 334.31C222.934 334.646 222.45 335.13 222.114 335.712C221.777 336.295 221.6 336.955 221.6 337.628C221.6 338.301 221.777 338.961 222.114 339.544C222.45 340.126 222.934 340.61 223.516 340.946L229.263 344.263L223.516 347.581C222.934 347.917 222.45 348.401 222.114 348.983C221.777 349.566 221.6 350.226 221.6 350.899C221.6 351.571 221.777 352.232 222.114 352.814C222.45 353.397 222.934 353.88 223.516 354.216L229.263 357.534L223.516 360.852C222.934 361.188 222.45 361.671 222.114 362.254C221.777 362.836 221.6 363.497 221.6 364.169C221.6 364.842 221.777 365.503 222.114 366.085C222.45 366.667 222.934 367.151 223.516 367.487L229.263 370.805L223.516 374.122C222.934 374.459 222.45 374.942 222.114 375.525C221.777 376.107 221.6 376.768 221.6 377.44C221.6 378.113 221.777 378.773 222.114 379.356C222.45 379.938 222.934 380.422 223.516 380.758L229.263 384.076L223.516 387.393C222.934 387.729 222.45 388.213 222.114 388.795C221.777 389.378 221.6 390.038 221.6 390.711C221.6 391.383 221.777 392.044 222.114 392.626C222.45 393.209 222.934 393.692 223.516 394.029L229.263 397.346L223.516 400.664C222.934 401 222.45 401.484 222.114 402.066C221.777 402.648 221.6 403.309 221.6 403.982C221.6 404.654 221.777 405.315 222.114 405.897C222.45 406.48 222.934 406.963 223.516 407.299L229.263 410.617L223.516 413.935C222.934 414.271 222.45 414.754 222.114 415.337C221.777 415.919 221.6 416.58 221.6 417.252C221.6 417.925 221.777 418.585 222.114 419.168C222.45 419.75 222.934 420.234 223.516 420.57L229.263 423.888L223.516 427.205C222.934 427.541 222.45 428.025 222.114 428.607C221.777 429.19 221.6 429.85 221.6 430.523C221.6 431.196 221.777 431.856 222.114 432.439C222.45 433.021 222.934 433.505 223.516 433.841L229.263 437.158L223.516 440.476C222.934 440.812 222.45 441.296 222.114 441.878C221.777 442.461 221.6 443.121 221.6 443.794C221.6 444.466 221.777 445.127 222.114 445.709C222.45 446.292 222.934 446.775 223.516 447.111L229.263 450.429L223.516 453.747C222.934 454.083 222.45 454.566 222.114 455.149C221.777 455.731 221.6 456.392 221.6 457.064C221.6 457.737 221.777 458.398 222.114 458.98C222.45 459.562 222.934 460.046 223.516 460.382L229.263 463.7L223.516 467.017C222.934 467.354 222.45 467.837 222.114 468.42C221.777 469.002 221.6 469.663 221.6 470.335C221.6 471.008 221.777 471.668 222.114 472.251C222.45 472.833 222.934 473.317 223.516 473.653L229.263 476.97L223.516 480.288C222.934 480.624 222.45 481.108 222.114 481.69C221.777 482.273 221.6 482.933 221.6 483.606C221.6 484.278 221.777 484.939 222.114 485.521C222.45 486.104 222.934 486.587 223.516 486.924L229.263 490.241C229.262 493.727 229.949 497.178 231.283 500.398C232.617 503.618 234.572 506.544 237.036 509.009C239.501 511.474 242.427 513.429 245.647 514.762C248.867 516.096 252.318 516.783 255.804 516.783H415.053C418.538 516.783 421.989 516.096 425.21 514.762C428.43 513.429 431.356 511.474 433.82 509.009C436.285 506.544 438.24 503.618 439.574 500.398C440.908 497.178 441.594 493.727 441.594 490.241V384.076L348.672 378.268C345.086 378.044 341.719 376.461 339.259 373.841C336.798 371.222 335.428 367.763 335.428 364.169C335.428 360.576 336.798 357.117 339.259 354.498C341.719 351.878 345.086 350.295 348.672 350.071Z" fill="#6B6DFF"/>
    <path fill-rule="evenodd" clip-rule="evenodd" d="M388.511 516.783H428.323V463.7H388.511V516.783Z" fill="#6B6DFF"/>
    <path fill-rule="evenodd" clip-rule="evenodd" d="M454.865 483.606C454.581 483.616 454.297 483.644 454.017 483.691C453.966 483.492 453.919 483.291 453.863 483.092C454.737 482.734 455.524 482.192 456.171 481.505C456.819 480.817 457.312 479.999 457.618 479.105C457.923 478.211 458.034 477.263 457.943 476.322C457.852 475.382 457.561 474.472 457.089 473.654C456.618 472.835 455.977 472.127 455.209 471.577C454.441 471.026 453.565 470.646 452.639 470.462C451.712 470.278 450.757 470.294 449.837 470.509C448.917 470.725 448.054 471.134 447.306 471.71C447.159 471.56 447.011 471.411 446.861 471.264C447.423 470.514 447.819 469.654 448.024 468.739C448.229 467.825 448.237 466.877 448.048 465.959C447.86 465.042 447.478 464.174 446.93 463.415C446.381 462.655 445.678 462.02 444.866 461.553C444.054 461.085 443.152 460.795 442.219 460.702C441.287 460.608 440.345 460.714 439.457 461.011C438.568 461.309 437.753 461.792 437.065 462.428C436.376 463.063 435.831 463.838 435.464 464.701C435.268 464.645 435.07 464.598 434.874 464.548C435.031 463.597 434.98 462.624 434.723 461.695C434.466 460.766 434.01 459.904 433.387 459.169C432.764 458.434 431.988 457.844 431.114 457.439C430.239 457.034 429.287 456.824 428.323 456.824C427.36 456.824 426.408 457.034 425.533 457.439C424.659 457.844 423.883 458.434 423.26 459.169C422.636 459.904 422.18 460.766 421.924 461.695C421.667 462.624 421.615 463.597 421.773 464.548C421.576 464.598 421.379 464.645 421.182 464.701C420.818 463.834 420.274 463.054 419.586 462.414C418.898 461.773 418.081 461.287 417.19 460.986C416.299 460.686 415.355 460.578 414.419 460.671C413.484 460.763 412.578 461.054 411.764 461.523C410.949 461.992 410.243 462.629 409.694 463.392C409.144 464.155 408.763 465.026 408.576 465.947C408.389 466.868 408.4 467.819 408.609 468.736C408.817 469.652 409.218 470.514 409.785 471.264C406.852 474.125 404.621 477.626 403.268 481.494C401.915 485.361 401.476 489.49 401.986 493.555C402.495 497.621 403.94 501.513 406.206 504.927C408.472 508.34 411.498 511.183 415.047 513.231C418.596 515.279 422.571 516.477 426.66 516.732C430.75 516.986 434.842 516.29 438.618 514.697C442.393 513.104 445.748 510.659 448.42 507.552C451.091 504.446 453.007 500.763 454.017 496.792C454.915 496.91 455.829 496.842 456.7 496.593C457.572 496.343 458.383 495.918 459.083 495.342C459.784 494.766 460.358 494.053 460.772 493.246C461.185 492.44 461.428 491.557 461.486 490.652C461.545 489.747 461.416 488.84 461.11 487.987C460.803 487.134 460.325 486.353 459.704 485.693C459.083 485.032 458.333 484.506 457.501 484.147C456.668 483.788 455.771 483.604 454.865 483.606Z" fill="#E969D4"/>
    <path fill-rule="evenodd" clip-rule="evenodd" d="M401.782 437.158H441.594V410.617H401.782V437.158Z" fill="#6B6DFF"/>
    <path fill-rule="evenodd" clip-rule="evenodd" d="M454.865 427.205C455.745 427.205 456.588 426.856 457.211 426.233C457.833 425.611 458.182 424.767 458.182 423.888C458.182 423.008 457.833 422.164 457.211 421.542C456.588 420.919 455.745 420.57 454.865 420.57C454.723 420.575 454.581 420.589 454.441 420.612C454.415 420.513 454.392 420.413 454.364 420.314C455.071 420.017 455.653 419.486 456.011 418.809C456.37 418.132 456.484 417.353 456.334 416.602C456.183 415.851 455.778 415.175 455.186 414.689C454.594 414.203 453.852 413.936 453.086 413.935C452.362 413.936 451.658 414.178 451.085 414.622C451.012 414.546 450.938 414.472 450.862 414.399C451.296 413.829 451.532 413.133 451.534 412.416C451.534 411.652 451.269 410.911 450.785 410.318C450.302 409.726 449.628 409.319 448.879 409.167C448.13 409.014 447.351 409.124 446.674 409.48C445.997 409.835 445.463 410.414 445.164 411.117C443.19 410.559 441.114 410.466 439.099 410.846C437.083 411.225 435.183 412.067 433.547 413.304C431.912 414.541 430.585 416.141 429.672 417.977C428.759 419.814 428.283 421.837 428.283 423.888C428.283 425.938 428.759 427.961 429.672 429.798C430.585 431.634 431.912 433.234 433.547 434.471C435.183 435.708 437.083 436.55 439.099 436.929C441.114 437.309 443.19 437.216 445.164 436.658C445.463 437.361 445.997 437.94 446.674 438.295C447.351 438.651 448.13 438.761 448.879 438.609C449.628 438.456 450.302 438.049 450.785 437.457C451.269 436.865 451.534 436.123 451.534 435.359C451.532 434.642 451.296 433.946 450.862 433.376C450.938 433.303 451.012 433.229 451.085 433.153C451.658 433.597 452.362 433.839 453.086 433.841C453.853 433.841 454.596 433.575 455.189 433.089C455.782 432.603 456.189 431.926 456.339 431.175C456.49 430.423 456.375 429.642 456.015 428.965C455.655 428.288 455.072 427.757 454.364 427.461C454.392 427.363 454.415 427.262 454.441 427.163C454.581 427.186 454.723 427.2 454.865 427.205Z" fill="#E969D4"/>
    <path fill-rule="evenodd" clip-rule="evenodd" d="M282.345 347.581C281.466 347.581 280.622 347.231 279.999 346.609C279.377 345.987 279.028 345.143 279.028 344.263C279.028 341.624 277.979 339.092 276.113 337.225C274.246 335.359 271.714 334.31 269.075 334.31C266.435 334.31 263.903 335.359 262.037 337.225C260.17 339.092 259.122 341.624 259.122 344.263C259.122 344.699 259.037 345.132 258.871 345.535C258.704 345.938 258.46 346.304 258.152 346.613C257.844 346.922 257.478 347.167 257.075 347.334C256.672 347.501 256.24 347.587 255.804 347.587C255.368 347.587 254.936 347.501 254.533 347.334C254.13 347.167 253.764 346.922 253.456 346.613C253.148 346.304 252.904 345.938 252.737 345.535C252.571 345.132 252.486 344.699 252.486 344.263C252.486 339.864 254.234 335.644 257.345 332.534C260.456 329.423 264.675 327.675 269.075 327.675C273.474 327.675 277.694 329.423 280.805 332.534C283.915 335.644 285.663 339.864 285.663 344.263C285.663 345.143 285.314 345.987 284.691 346.609C284.069 347.231 283.225 347.581 282.345 347.581Z" fill="black"/>
    <path fill-rule="evenodd" clip-rule="evenodd" d="M335.428 516.783H415.053C418.538 516.783 421.989 516.096 425.21 514.762C428.43 513.429 431.356 511.474 433.82 509.009C436.285 506.544 438.24 503.618 439.574 500.398C440.908 497.178 441.594 493.727 441.594 490.241V397.346H361.97C358.484 397.346 355.033 398.033 351.813 399.366C348.592 400.7 345.666 402.655 343.202 405.12C340.737 407.584 338.782 410.51 337.448 413.731C336.115 416.951 335.428 420.402 335.428 423.888V516.783Z" fill="#FFFF50"/>
    <path fill-rule="evenodd" clip-rule="evenodd" d="M421.714 438.486H355.308C354.956 438.486 354.618 438.346 354.369 438.097C354.12 437.848 353.981 437.51 353.981 437.158C353.981 436.807 354.12 436.469 354.369 436.22C354.618 435.971 354.956 435.831 355.308 435.831H421.714C422.066 435.831 422.404 435.971 422.653 436.22C422.902 436.469 423.041 436.807 423.041 437.158C423.041 437.51 422.902 437.848 422.653 438.097C422.404 438.346 422.066 438.486 421.714 438.486ZM421.714 465.027H355.308C354.956 465.027 354.618 464.887 354.369 464.638C354.12 464.389 353.981 464.052 353.981 463.7C353.981 463.348 354.12 463.01 354.369 462.762C354.618 462.513 354.956 462.373 355.308 462.373H421.714C422.066 462.373 422.404 462.513 422.653 462.762C422.902 463.01 423.041 463.348 423.041 463.7C423.041 464.052 422.902 464.389 422.653 464.638C422.404 464.887 422.066 465.027 421.714 465.027ZM421.714 491.568H355.308C355.133 491.568 354.961 491.534 354.8 491.467C354.639 491.401 354.493 491.303 354.369 491.18C354.246 491.056 354.148 490.91 354.082 490.749C354.015 490.588 353.981 490.416 353.981 490.241C353.981 490.067 354.015 489.894 354.082 489.733C354.148 489.572 354.246 489.426 354.369 489.303C354.493 489.18 354.639 489.082 354.8 489.015C354.961 488.949 355.133 488.914 355.308 488.914H421.714C422.066 488.914 422.404 489.054 422.653 489.303C422.902 489.552 423.041 489.889 423.041 490.241C423.041 490.593 422.902 490.931 422.653 491.18C422.404 491.429 422.066 491.568 421.714 491.568ZM421.714 425.462H355.308C354.956 425.462 354.618 425.322 354.369 425.073C354.12 424.824 353.981 424.487 353.981 424.135C353.981 423.783 354.12 423.445 354.369 423.196C354.618 422.947 354.956 422.808 355.308 422.808H421.714C422.066 422.808 422.404 422.947 422.653 423.196C422.902 423.445 423.041 423.783 423.041 424.135C423.041 424.487 422.902 424.824 422.653 425.073C422.404 425.322 422.066 425.462 421.714 425.462ZM421.714 451.756H355.308C354.956 451.756 354.618 451.616 354.369 451.368C354.12 451.119 353.981 450.781 353.981 450.429C353.981 450.077 354.12 449.74 354.369 449.491C354.618 449.242 354.956 449.102 355.308 449.102H421.714C422.066 449.102 422.404 449.242 422.653 449.491C422.902 449.74 423.041 450.077 423.041 450.429C423.041 450.781 422.902 451.119 422.653 451.368C422.404 451.616 422.066 451.756 421.714 451.756ZM421.714 478.298H355.308C354.956 478.298 354.618 478.158 354.369 477.909C354.12 477.66 353.981 477.323 353.981 476.971C353.981 476.619 354.12 476.281 354.369 476.032C354.618 475.783 354.956 475.644 355.308 475.644H421.714C422.066 475.644 422.404 475.783 422.653 476.032C422.902 476.281 423.041 476.619 423.041 476.971C423.041 477.323 422.902 477.66 422.653 477.909C422.404 478.158 422.066 478.298 421.714 478.298ZM441.594 355.691C441.578 355.691 441.565 355.683 441.549 355.684C437.448 355.824 435.508 359.926 433.796 363.544C432.01 367.327 430.628 369.786 428.364 369.711C425.858 369.621 424.424 366.789 422.906 363.793C421.162 360.35 419.172 356.446 414.993 356.592C410.951 356.73 409.004 360.3 407.287 363.449C405.459 366.804 404.216 368.843 401.818 368.749C399.26 368.656 397.901 366.354 396.329 363.689C394.576 360.722 392.549 357.386 388.451 357.5C384.478 357.636 382.526 360.665 380.803 363.339C378.981 366.165 377.705 367.888 375.276 367.786C372.658 367.693 371.306 365.782 369.741 363.57C367.984 361.084 366.004 358.271 361.918 358.407C358.032 358.54 356.08 361.022 354.359 363.209C352.724 365.284 351.447 366.927 348.747 366.824C348.572 366.817 348.399 366.845 348.235 366.906C348.071 366.967 347.922 367.059 347.794 367.178C347.666 367.297 347.563 367.44 347.49 367.599C347.418 367.757 347.377 367.929 347.371 368.103C347.365 368.277 347.393 368.451 347.454 368.615C347.515 368.778 347.607 368.928 347.726 369.056C347.845 369.183 347.988 369.286 348.147 369.359C348.305 369.431 348.477 369.472 348.651 369.478C352.655 369.612 354.683 367.089 356.444 364.85C358.006 362.865 359.354 361.152 362.008 361.062C364.564 360.953 365.762 362.541 367.575 365.103C369.296 367.536 371.25 370.297 375.181 370.439C379.299 370.577 381.28 367.499 383.034 364.776C384.603 362.342 385.956 360.241 388.542 360.153C390.921 360.064 392.216 361.944 394.042 365.038C395.764 367.953 397.713 371.256 401.722 371.402C405.869 371.545 407.872 367.925 409.617 364.72C411.128 361.949 412.555 359.332 415.083 359.245C417.463 359.189 418.703 361.362 420.539 364.991C422.253 368.379 424.197 372.217 428.269 372.364L428.493 372.368C432.559 372.368 434.489 368.288 436.197 364.679C437.708 361.481 439.139 358.469 441.594 358.345V355.691Z" fill="black"/>
    <path fill-rule="evenodd" clip-rule="evenodd" d="M308.887 516.783H361.97V463.7H308.887V516.783Z" fill="#6B6DFF"/>
    <path fill-rule="evenodd" clip-rule="evenodd" d="M388.511 483.606C388.227 483.616 387.944 483.644 387.663 483.691C387.613 483.492 387.565 483.291 387.509 483.092C388.383 482.734 389.17 482.192 389.818 481.505C390.465 480.817 390.958 479.999 391.264 479.105C391.569 478.211 391.68 477.262 391.589 476.322C391.498 475.382 391.207 474.472 390.736 473.654C390.264 472.835 389.623 472.127 388.855 471.577C388.088 471.026 387.211 470.646 386.285 470.462C385.358 470.278 384.403 470.294 383.484 470.509C382.564 470.724 381.701 471.134 380.952 471.71C380.805 471.56 380.657 471.411 380.508 471.264C381.069 470.514 381.466 469.653 381.67 468.739C381.875 467.825 381.883 466.877 381.695 465.959C381.506 465.041 381.125 464.174 380.576 463.414C380.028 462.655 379.324 462.02 378.512 461.552C377.7 461.085 376.798 460.795 375.866 460.701C374.933 460.608 373.992 460.714 373.103 461.011C372.215 461.309 371.399 461.791 370.711 462.427C370.023 463.063 369.477 463.838 369.111 464.7C368.914 464.645 368.717 464.598 368.52 464.548C368.678 463.597 368.626 462.623 368.369 461.695C368.113 460.766 367.657 459.904 367.034 459.169C366.41 458.434 365.634 457.843 364.76 457.438C363.886 457.034 362.933 456.824 361.97 456.824C361.006 456.824 360.054 457.034 359.18 457.438C358.305 457.843 357.529 458.434 356.906 459.169C356.283 459.904 355.827 460.766 355.57 461.695C355.313 462.623 355.262 463.597 355.419 464.548C355.223 464.598 355.025 464.645 354.829 464.7C354.465 463.833 353.921 463.054 353.232 462.414C352.544 461.773 351.727 461.287 350.837 460.986C349.946 460.685 349.001 460.578 348.066 460.67C347.13 460.763 346.225 461.053 345.41 461.523C344.595 461.992 343.89 462.629 343.34 463.392C342.791 464.155 342.41 465.026 342.223 465.947C342.036 466.868 342.047 467.819 342.255 468.736C342.464 469.652 342.865 470.514 343.432 471.264C340.499 474.125 338.268 477.626 336.915 481.494C335.561 485.361 335.122 489.49 335.632 493.555C336.142 497.621 337.586 501.513 339.852 504.927C342.119 508.34 345.145 511.183 348.693 513.231C352.242 515.279 356.217 516.477 360.307 516.731C364.396 516.986 368.489 516.289 372.264 514.697C376.039 513.104 379.394 510.659 382.066 507.552C384.738 504.446 386.654 500.763 387.663 496.792C388.562 496.91 389.475 496.842 390.347 496.592C391.218 496.343 392.029 495.917 392.73 495.342C393.43 494.766 394.005 494.053 394.418 493.246C394.831 492.439 395.075 491.556 395.133 490.652C395.191 489.747 395.063 488.84 394.756 487.987C394.45 487.134 393.971 486.353 393.35 485.693C392.73 485.032 391.98 484.506 391.147 484.147C390.315 483.788 389.418 483.604 388.511 483.606Z" fill="#E969D4"/>
    <path fill-rule="evenodd" clip-rule="evenodd" d="M308.887 437.158H361.97V410.617H308.887V437.158Z" fill="#6B6DFF"/>
    <path fill-rule="evenodd" clip-rule="evenodd" d="M375.24 427.205C376.12 427.205 376.964 426.856 377.586 426.233C378.209 425.611 378.558 424.767 378.558 423.888C378.558 423.008 378.209 422.164 377.586 421.542C376.964 420.919 376.12 420.57 375.24 420.57C375.099 420.575 374.957 420.589 374.817 420.612C374.791 420.513 374.768 420.413 374.74 420.314C375.446 420.017 376.028 419.486 376.387 418.809C376.746 418.132 376.86 417.353 376.71 416.602C376.559 415.851 376.154 415.175 375.562 414.689C374.97 414.203 374.228 413.936 373.462 413.935C372.737 413.936 372.034 414.178 371.461 414.622C371.388 414.546 371.314 414.472 371.238 414.399C371.672 413.829 371.908 413.133 371.909 412.416C371.909 411.652 371.645 410.911 371.161 410.318C370.677 409.726 370.004 409.319 369.255 409.167C368.506 409.014 367.727 409.124 367.05 409.48C366.373 409.835 365.839 410.414 365.539 411.117C363.566 410.559 361.49 410.466 359.474 410.846C357.459 411.225 355.559 412.067 353.923 413.304C352.288 414.541 350.961 416.141 350.048 417.977C349.134 419.814 348.659 421.837 348.659 423.888C348.659 425.938 349.134 427.961 350.048 429.798C350.961 431.634 352.288 433.234 353.923 434.471C355.559 435.708 357.459 436.55 359.474 436.929C361.49 437.309 363.566 437.216 365.539 436.658C365.839 437.361 366.373 437.94 367.05 438.295C367.727 438.651 368.506 438.761 369.255 438.609C370.004 438.456 370.677 438.049 371.161 437.457C371.645 436.865 371.909 436.123 371.909 435.359C371.908 434.642 371.672 433.946 371.238 433.376C371.314 433.303 371.388 433.229 371.461 433.153C372.034 433.597 372.737 433.839 373.462 433.841C374.229 433.841 374.972 433.575 375.565 433.089C376.158 432.603 376.564 431.926 376.715 431.175C376.866 430.423 376.751 429.642 376.391 428.965C376.031 428.288 375.448 427.757 374.74 427.461C374.768 427.363 374.791 427.262 374.817 427.163C374.957 427.186 375.099 427.2 375.24 427.205Z" fill="#E969D4"/>
    <path fill-rule="evenodd" clip-rule="evenodd" d="M388.511 329.334C388.293 329.331 388.075 329.309 387.861 329.267C387.647 329.226 387.439 329.164 387.237 329.082C387.037 328.998 386.846 328.896 386.665 328.776C386.488 328.65 386.32 328.513 386.161 328.365C386.01 328.209 385.873 328.04 385.751 327.861C385.384 327.316 385.19 326.673 385.193 326.016C385.196 325.798 385.218 325.58 385.26 325.366C385.303 325.153 385.365 324.944 385.444 324.742C385.528 324.543 385.631 324.352 385.751 324.171C385.99 323.807 386.301 323.496 386.665 323.256C386.846 323.136 387.037 323.034 387.237 322.951C387.439 322.868 387.647 322.806 387.861 322.765C388.289 322.672 388.733 322.672 389.161 322.765C389.589 322.846 389.995 323.013 390.356 323.256C390.533 323.382 390.701 323.519 390.86 323.667C391.008 323.826 391.146 323.994 391.271 324.171C391.391 324.351 391.493 324.543 391.577 324.742C391.74 325.147 391.825 325.579 391.829 326.016C391.825 326.896 391.478 327.739 390.86 328.365C390.701 328.513 390.533 328.65 390.356 328.776C389.81 329.141 389.168 329.335 388.511 329.334ZM415.053 327.675C414.173 327.669 413.33 327.322 412.702 326.706C412.555 326.547 412.418 326.379 412.292 326.202C411.926 325.657 411.731 325.014 411.735 324.357C411.74 323.478 412.087 322.636 412.702 322.008C412.861 321.86 413.03 321.723 413.207 321.597C413.387 321.477 413.579 321.375 413.779 321.292C413.98 321.21 414.189 321.147 414.402 321.106C414.831 321.013 415.274 321.013 415.703 321.106C416.13 321.187 416.536 321.354 416.897 321.597C417.074 321.723 417.242 321.86 417.401 322.008C418.017 322.636 418.364 323.478 418.37 324.357C418.367 324.576 418.345 324.793 418.304 325.007C418.262 325.221 418.2 325.43 418.118 325.631C418.03 325.828 417.928 326.019 417.813 326.202C417.687 326.379 417.55 326.547 417.401 326.706C417.242 326.854 417.074 326.991 416.897 327.118C416.351 327.482 415.709 327.676 415.053 327.675Z" fill="black"/>
  </g>
  <defs>
    <clipPath id="clip0_6_354">
      <rect width="1129" height="663" fill="white"/>
    </clipPath>
  </defs>
</svg>