<svg width="1042" height="555" viewBox="0 0 1042 555" fill="none" xmlns="http://www.w3.org/2000/svg">
  <g clip-path="url(#clip0_6_395)">
    <path d="M975.469 447.175C974.309 449.675 973.153 452.142 971.999 454.575C970.199 458.355 968.423 462.062 966.669 465.695C965.889 467.305 965.109 468.885 964.349 470.465C955.749 488.035 947.719 503.575 940.899 516.355C934.711 527.935 925.522 537.638 914.296 544.446C903.069 551.255 890.218 554.919 877.089 555.055L725.439 556.705H723.839L710.839 556.845L699.719 556.965L665.619 557.335H664.239L646.879 557.525H646.349L539.349 558.685L443.839 559.685L432.729 559.805L363.729 560.555H363.649L318.899 561.035H318.419L176.919 562.565L134.589 563.025C130.985 563.066 127.381 562.886 123.799 562.485C122.579 562.345 121.359 562.185 120.149 561.995C100.407 558.948 82.3054 549.228 68.8593 534.455C50.6493 514.425 37.3992 491.055 28.4992 465.695C27.2126 462.035 26.0126 458.328 24.8992 454.575C-5.91075 350.425 31.6493 216.055 99.2493 126.135C102.083 122.375 104.963 118.708 107.889 115.135L107.959 115.055C128.749 89.5351 152.059 68.2151 176.889 53.0551C220.889 26.1451 269.639 18.5651 317.589 41.1551C358.159 60.2751 396.039 69.2651 432.759 71.7051C436.469 71.9451 440.179 72.1251 443.869 72.2351C528.099 74.8851 607.039 44.5351 699.739 24.9451C703.429 24.1651 707.129 23.3951 710.859 22.6651C776.989 9.50509 850.349 2.56509 937.589 17.1551C946.653 18.6358 955.596 20.7747 964.349 23.5551C968.196 24.7951 971.903 26.1284 975.469 27.5551C1017.11 44.4951 1039.82 75.7951 1049.47 115.015C1050.38 118.655 1051.17 122.358 1051.84 126.125C1068.95 220.465 1018.84 354.285 975.469 447.175Z" fill="#F2F2F2"/>
    <path opacity="0.1" d="M511.009 454.575C510.606 458.315 509.982 462.029 509.139 465.695H602.839V454.575H511.009ZM432.759 517.385L443.869 517.295V489.825C440.059 489.655 436.349 489.485 432.759 489.305V517.385ZM199.839 454.575V465.695H398.339V454.575H199.839ZM1049.52 115.055H975.519V27.5651C971.952 26.1185 968.246 24.7851 964.399 23.5651V115.055H710.859V22.6351C707.129 23.3651 703.429 24.1351 699.739 24.9151V115.055H443.869V72.2051C440.179 72.0951 436.469 71.9151 432.759 71.6751V115.055H176.889V53.0551C152.059 68.2151 128.749 89.5351 107.959 115.055H107.889V115.135C104.956 118.735 102.076 122.402 99.2492 126.135H107.889V454.575H24.8892C25.9958 458.328 27.1958 462.035 28.4892 465.695H107.879V559.315C111.874 560.537 115.951 561.469 120.079 562.105C121.289 562.295 122.509 562.455 123.729 562.595C127.311 562.996 130.915 563.176 134.519 563.135L176.849 562.675V465.675H432.759V559.885L443.869 559.765V465.695H699.739V557.055L710.859 556.935V465.695H964.349V470.465C965.109 468.885 965.889 467.305 966.669 465.695C968.423 462.062 970.199 458.355 971.999 454.575C973.152 452.148 974.309 449.682 975.469 447.175V126.175H1051.89C1051.22 122.382 1050.43 118.675 1049.52 115.055ZM176.889 454.575V126.135H432.759V454.575H176.889ZM443.889 454.575V126.135H699.739V454.575H443.889ZM964.369 454.575H710.859V126.135H964.349L964.369 454.575Z" fill="black"/>
    <path d="M877.079 542.615V555.615L725.159 557.015L723.539 557.045L665.799 557.575L664.419 557.595L646.869 557.745H646.349L539.369 558.735L363.759 560.365H363.609L318.959 560.785L318.479 560.795L120.079 562.615V547.615L166.729 519.615L260.329 518.835L262.329 518.825L262.989 518.815L264.989 518.785L309.929 518.415L311.939 518.405L312.579 518.395L314.579 518.385L328.989 518.265L329.369 518.255L364.919 517.955H365.209L642.609 515.615L649.399 515.565H650.079L655.259 515.515L692.909 515.205L694.909 515.175L696.759 515.155H697.719L709.429 515.065L711.749 515.035L714.859 515.015L724.609 514.925L740.079 514.795L742.079 514.775L745.559 514.755H746.209L820.919 514.115L877.079 542.615Z" fill="#65617D"/>
    <path opacity="0.2" d="M877.079 542.615V555.615L725.159 557.015L723.539 557.045L665.799 557.575L664.419 557.595L646.869 557.745H646.349L539.369 558.735L363.759 560.365H363.609L318.959 560.785L318.479 560.795L120.079 562.615V547.615L166.729 519.615L260.329 518.835L262.329 518.825L262.989 518.815L264.989 518.785L309.929 518.415L311.939 518.405L312.579 518.395L314.579 518.385L328.989 518.265L329.369 518.255L364.919 517.955H365.209L642.609 515.615L649.399 515.565H650.079L655.259 515.515L692.909 515.205L694.909 515.175L696.759 515.155H697.719L709.429 515.065L711.749 515.035L714.859 515.015L724.609 514.925L740.079 514.795L742.079 514.775L745.559 514.755H746.209L820.919 514.115L877.079 542.615Z" fill="black"/>
    <path d="M310.089 492.625V517.115C310.09 518.275 309.761 519.411 309.142 520.392C308.522 521.373 307.637 522.157 306.589 522.655C305.809 523.033 304.956 523.238 304.089 523.255L269.189 523.995C268.257 524.017 267.333 523.822 266.489 523.425C265.423 522.936 264.52 522.152 263.887 521.164C263.254 520.177 262.918 519.028 262.919 517.855V492.625H310.089Z" fill="#3F3D56"/>
    <path opacity="0.1" d="M310.089 492.625V517.115C310.09 518.275 309.761 519.411 309.142 520.392C308.522 521.373 307.637 522.157 306.589 522.655C305.809 523.033 304.956 523.238 304.089 523.255L269.189 523.995C268.257 524.017 267.333 523.822 266.489 523.425C265.423 522.936 264.52 522.152 263.887 521.164C263.254 520.177 262.918 519.028 262.919 517.855V492.625H310.089Z" fill="black"/>
    <path d="M312.089 492.625V517.115C312.09 518.275 311.761 519.411 311.142 520.392C310.522 521.373 309.637 522.157 308.589 522.655C307.809 523.033 306.956 523.238 306.089 523.255L271.189 523.995C270.257 524.017 269.333 523.822 268.489 523.425C267.423 522.936 266.52 522.152 265.887 521.164C265.254 520.177 264.918 519.028 264.919 517.855V492.625H312.089Z" fill="#3F3D56"/>
    <path d="M742.079 492.615H694.909V524.115H742.079V492.615Z" fill="#3F3D56"/>
    <path opacity="0.1" d="M742.079 492.615H694.909V524.115H742.079V492.615Z" fill="black"/>
    <path d="M740.079 492.615H692.909V524.115H740.079V492.615Z" fill="#3F3D56"/>
    <path opacity="0.1" d="M312.079 492.615V497.585L264.909 498.845V492.615H312.079Z" fill="black"/>
    <path d="M395.339 321.325V489.525C395.327 490.552 394.921 491.535 394.204 492.27C393.487 493.005 392.515 493.437 391.489 493.475L199.839 498.575H199.789C198.746 498.562 197.749 498.142 197.011 497.404C196.273 496.666 195.852 495.669 195.839 494.625V321.325C195.852 320.282 196.273 319.284 197.011 318.546C197.749 317.808 198.746 317.388 199.789 317.375H391.389C392.433 317.388 393.43 317.808 394.168 318.546C394.906 319.284 395.326 320.282 395.339 321.325Z" fill="#65617D"/>
    <path opacity="0.1" d="M199.839 317.375V498.575H199.789C198.746 498.562 197.749 498.142 197.011 497.404C196.273 496.666 195.852 495.669 195.839 494.625V321.325C195.852 320.282 196.273 319.284 197.011 318.546C197.749 317.808 198.746 317.388 199.789 317.375H199.839Z" fill="black"/>
    <path d="M208.579 328.115H386.079V476.365L208.579 480.365V328.115Z" fill="#39374D"/>
    <path opacity="0.1" d="M740.079 492.615V499.025L692.909 497.765V492.615H740.079Z" fill="black"/>
    <path d="M802.339 321.325V494.625C802.326 495.677 801.899 496.682 801.15 497.421C800.401 498.161 799.392 498.575 798.339 498.575L606.649 493.475C605.623 493.437 604.651 493.005 603.935 492.27C603.218 491.535 602.811 490.552 602.799 489.525V321.325C602.812 320.282 603.233 319.284 603.971 318.546C604.709 317.808 605.706 317.388 606.749 317.375H798.349C799.4 317.378 800.407 317.793 801.154 318.532C801.9 319.272 802.326 320.275 802.339 321.325Z" fill="#65617D"/>
    <path opacity="0.1" d="M802.339 321.325V494.625C802.326 495.677 801.899 496.682 801.15 497.421C800.402 498.161 799.392 498.575 798.339 498.575V317.375C799.392 317.375 800.402 317.79 801.15 318.529C801.899 319.268 802.326 320.273 802.339 321.325Z" fill="black"/>
    <path d="M789.579 328.115H612.079V476.365L789.579 480.365V328.115Z" fill="#39374D"/>
    <path d="M597.839 321.325V489.525C597.827 490.552 597.421 491.535 596.704 492.27C595.987 493.005 595.015 493.437 593.989 493.475L402.339 498.575C401.287 498.575 400.277 498.161 399.528 497.421C398.78 496.682 398.353 495.677 398.339 494.625V321.325C398.352 320.282 398.773 319.284 399.511 318.546C400.249 317.808 401.246 317.388 402.289 317.375H593.889C594.933 317.388 595.93 317.808 596.668 318.546C597.406 319.284 597.826 320.282 597.839 321.325Z" fill="#65617D"/>
    <path d="M411.079 328.115H588.579V476.365L411.079 480.365V328.115Z" fill="#4267B2"/>
    <path opacity="0.1" d="M877.079 542.615V555.615L725.159 557.015L723.539 557.045L665.799 557.575L664.419 557.595L646.869 557.745H646.349L539.369 558.735L363.759 560.365H363.609L318.959 560.785L318.479 560.795L120.079 562.615V547.615L322.589 546.285H323.069L364.059 546.005H364.249L647.329 544.135H647.619L647.789 544.125H648.259L653.049 544.095H654.509L728.999 543.595L733.399 543.575L734.379 543.565L877.079 542.615Z" fill="black"/>
    <path d="M501.249 358.445C529.598 358.445 552.579 335.464 552.579 307.115C552.579 278.766 529.598 255.785 501.249 255.785C472.901 255.785 449.919 278.766 449.919 307.115C449.919 335.464 472.901 358.445 501.249 358.445Z" fill="#FBBEBE"/>
    <path d="M552.589 386.125C552.589 386.125 453.089 398.125 462.589 386.125C466.029 381.785 466.979 368.925 466.789 354.275C466.729 349.825 466.569 345.215 466.339 340.625C465.239 318.625 462.589 297.125 462.589 297.125C462.589 297.125 549.589 256.125 539.589 288.625C535.589 301.755 536.899 320.195 539.939 337.505C540.829 342.555 541.859 347.505 542.939 352.205C545.575 363.669 548.796 374.99 552.589 386.125Z" fill="#FBBEBE"/>
    <path d="M520.119 382.055C531.629 379.925 543.819 376.055 554.649 380.515C557.499 381.685 560.119 383.395 563.039 384.375C565.959 385.355 569.159 385.595 572.199 386.285C582.879 388.705 591.539 396.835 597.099 406.285C602.659 415.735 605.539 426.425 608.359 437.005L615.259 462.835C621.259 485.285 627.259 507.925 628.649 531.135C545.116 535.917 461.392 536.394 377.809 532.565C383.249 522.225 388.809 511.255 388.349 499.565C387.889 487.875 381.159 476.345 383.589 464.825C385.139 457.485 390.159 451.435 393.229 444.605C401.979 425.085 395.169 398.815 410.549 383.955C417.469 377.275 427.549 374.745 437.179 375.065C449.459 375.475 462.029 379.305 474.179 381.175C489.739 383.535 504.439 384.935 520.119 382.055Z" fill="#FF6584"/>
    <path opacity="0.1" d="M651.019 493.225L650.919 494.655V494.755L650.749 497.055L649.419 515.565L647.809 537.865L647.349 544.145L646.349 557.585V557.755L539.349 558.755L363.759 560.655V561.495H363.619V560.375L364.069 546.015L364.929 517.955L365.669 494.165L365.739 491.795C365.783 490.365 366.118 488.958 366.723 487.661C367.329 486.365 368.192 485.205 369.261 484.253C370.33 483.301 371.582 482.578 372.939 482.126C374.297 481.674 375.733 481.504 377.159 481.625C381.879 482.025 388.009 482.515 395.339 483.035L398.339 483.255C440.669 486.195 518.899 489.995 597.839 485.255C599.499 485.165 601.169 485.065 602.839 484.945C615.079 484.175 627.309 483.185 639.419 481.945C640.95 481.785 642.497 481.962 643.952 482.464C645.407 482.966 646.735 483.782 647.841 484.852C648.947 485.923 649.804 487.223 650.353 488.661C650.903 490.099 651.13 491.64 651.019 493.175V493.225Z" fill="black"/>
    <path d="M363.729 561.495V560.655L539.35 558.745L646.35 557.745H646.65V557.575L647.65 544.135L648.079 538.135L649.72 515.525L651.009 497.625V497.185C651.069 496.36 651.032 495.531 650.9 494.715C650.905 494.682 650.905 494.648 650.9 494.615C650.625 492.927 649.938 491.334 648.9 489.975C647.798 488.563 646.356 487.455 644.708 486.755C643.059 486.055 641.26 485.787 639.48 485.975C627.37 487.215 615.14 488.205 602.9 488.975C601.23 489.095 599.56 489.195 597.9 489.285C518.96 493.975 440.73 490.175 398.4 487.285L395.4 487.065C388.07 486.545 381.94 486.065 377.22 485.655C374.623 485.436 372.037 486.186 369.962 487.762C367.886 489.337 366.467 491.625 365.979 494.185C365.879 494.726 365.818 495.275 365.799 495.825L365.12 517.985L364.19 546.055L363.75 560.415V561.535L363.729 561.495Z" fill="#3F3D56"/>
    <path opacity="0.1" d="M651.319 500.235L650.089 515.565L648.259 538.415L647.799 544.135L646.799 556.945L646.739 557.585V557.755L646.589 559.235L646.699 557.755H646.409L539.409 558.755L363.759 560.655V560.375L364.249 546.015L365.249 517.955L365.889 499.305C365.921 498.244 366.217 497.208 366.752 496.291C367.286 495.374 368.042 494.605 368.949 494.055C370.082 493.361 371.406 493.046 372.729 493.155C374.829 493.325 377.409 493.525 380.419 493.745C385.309 494.105 391.339 494.525 398.359 494.965C411.359 495.785 427.669 496.665 446.359 497.385C498.359 499.385 568.559 500.055 635.239 494.215C638.239 493.955 641.339 493.665 644.369 493.375C645.569 493.256 646.777 493.485 647.849 494.035C648.153 494.186 648.441 494.367 648.709 494.575C649.58 495.206 650.269 496.054 650.709 497.035C650.811 497.23 650.895 497.435 650.959 497.645C651.26 498.474 651.382 499.356 651.319 500.235Z" fill="black"/>
    <path opacity="0.1" d="M312.089 513.925V517.115C312.09 518.275 311.761 519.411 311.142 520.392C310.522 521.373 309.637 522.157 308.589 522.655L268.489 523.425C267.423 522.936 266.52 522.151 265.887 521.164C265.254 520.177 264.918 519.028 264.919 517.855V514.855L312.089 513.925Z" fill="black"/>
    <path d="M312.579 524.535L260.329 525.535V516.865L312.579 515.865V524.535Z" fill="#3F3D56"/>
    <path opacity="0.1" d="M312.579 524.535L260.329 525.535V516.865L312.579 515.865V524.535Z" fill="black"/>
    <path d="M314.579 524.535L262.329 525.535V516.865L314.579 515.865V524.535Z" fill="#3F3D56"/>
    <path opacity="0.1" d="M693.209 515.925V519.115C693.208 520.275 693.537 521.411 694.157 522.392C694.776 523.373 695.661 524.157 696.709 524.655L736.809 525.425C737.875 524.936 738.779 524.151 739.411 523.164C740.044 522.177 740.38 521.028 740.379 519.855V516.855L693.209 515.925Z" fill="black"/>
    <path opacity="0.1" d="M692.709 526.535L744.959 527.535V518.865L692.709 517.865V526.535Z" fill="black"/>
    <path d="M690.709 526.535L742.959 527.535V518.865L690.709 517.865V526.535Z" fill="#3F3D56"/>
    <path d="M468.779 322.845C468.859 329.845 465.619 336.445 462.869 342.915C452.857 366.483 448.52 392.074 450.209 417.625C450.939 428.625 452.789 439.625 450.939 450.525C449.089 461.425 442.509 472.295 431.939 475.425C449.469 485.875 473.199 484.775 489.699 472.765C498.489 466.365 505.039 457.435 511.449 448.655C510.688 464.427 506.121 479.781 498.139 493.405C512.568 492.128 526.566 487.834 539.23 480.802C551.893 473.77 562.938 464.157 571.649 452.585C575.959 446.775 579.709 440.395 581.369 433.355C584.459 420.355 580.149 406.845 576.859 393.855C574.11 382.996 572.049 371.974 570.689 360.855C570.259 357.295 569.909 353.635 570.789 350.155C571.789 346.085 574.459 342.645 576.429 338.935C582.029 328.395 582.159 315.635 579.289 304.055C576.419 292.475 570.799 281.795 565.229 271.245C560.769 262.785 555.929 253.935 547.769 248.965C542.669 245.865 536.769 244.575 530.889 243.325L505.519 237.895C499.969 236.705 494.259 235.515 488.649 236.385C479.179 237.865 472.509 244.705 466.649 251.725C462.059 257.185 450.839 267.435 450.049 274.585C449.329 281.175 455.149 292.215 456.139 299.165C457.439 308.165 458.359 305.165 463.439 310.685C466.649 314.105 468.719 318.055 468.779 322.845Z" fill="#3F3D56"/>
    <path d="M729.968 396.239C729.968 390.412 722.668 384.889 711.481 381.464C714.063 370.064 712.915 360.987 707.859 358.082C706.634 357.396 705.247 357.051 703.843 357.082V361.082C704.553 361.06 705.257 361.22 705.887 361.548C708.326 362.948 709.387 368.272 708.559 375.122C708.359 376.807 708.039 378.583 707.645 380.394C703.898 379.491 700.094 378.838 696.259 378.44C693.975 375.289 691.483 372.294 688.8 369.475C694.645 364.042 700.132 361.065 703.862 361.065V357.06C698.931 357.06 692.476 360.574 685.949 366.671C679.422 360.61 672.967 357.132 668.036 357.132V361.132C671.748 361.132 677.252 364.091 683.098 369.488C680.428 372.297 677.954 375.287 675.693 378.435C671.852 378.829 668.043 379.488 664.293 380.407C663.881 378.614 663.576 376.875 663.361 375.207C662.518 368.357 663.561 363.032 665.979 361.615C666.612 361.277 667.325 361.116 668.041 361.149V357.149C666.626 357.118 665.228 357.463 663.989 358.149C658.95 361.049 657.821 370.109 660.421 381.477C649.268 384.92 642.006 390.424 642.006 396.234C642.006 402.062 649.306 407.584 660.493 411.009C657.911 422.409 659.059 431.486 664.115 434.391C665.346 435.079 666.739 435.424 668.149 435.391C673.08 435.391 679.535 431.877 686.062 425.78C692.589 431.841 699.044 435.319 703.975 435.319C705.391 435.35 706.789 435.005 708.027 434.319C713.066 431.419 714.195 422.359 711.595 410.991C722.706 407.571 729.968 402.048 729.968 396.239ZM706.622 384.279C705.959 386.592 705.134 388.979 704.201 391.362C703.466 389.928 702.695 388.493 701.852 387.062C701.027 385.628 700.152 384.229 699.27 382.862C701.817 383.239 704.273 383.705 706.622 384.279ZM698.41 403.379C697.01 405.8 695.577 408.095 694.089 410.229C691.417 410.462 688.71 410.588 685.989 410.588C683.281 410.588 680.574 410.462 677.92 410.247C676.432 408.114 674.986 405.842 673.581 403.433C672.219 401.084 670.975 398.706 669.851 396.297C670.963 393.897 672.218 391.492 673.563 389.143C674.963 386.722 676.396 384.427 677.884 382.293C680.556 382.06 683.263 381.934 685.984 381.934C688.692 381.934 691.399 382.06 694.053 382.275C695.541 384.408 696.988 386.68 698.392 389.089C699.755 391.438 700.998 393.816 702.122 396.225C700.992 398.624 699.755 401.026 698.41 403.375V403.379ZM704.202 401.048C705.17 403.448 705.995 405.853 706.676 408.184C704.327 408.758 701.853 409.242 699.289 409.618C700.168 408.237 701.046 406.818 701.871 405.368C702.7 403.931 703.467 402.479 704.2 401.044L704.202 401.048ZM686.02 420.176C684.261 418.35 682.598 416.435 681.035 414.438C682.649 414.51 684.298 414.564 685.966 414.564C687.651 414.564 689.319 414.528 690.951 414.438C689.412 416.438 687.766 418.354 686.02 420.176ZM672.68 409.615C670.134 409.238 667.68 408.772 665.328 408.198C665.991 405.885 666.816 403.498 667.749 401.115C668.484 402.549 669.255 403.984 670.098 405.415C670.941 406.846 671.8 408.252 672.68 409.615ZM685.93 372.301C687.689 374.127 689.353 376.042 690.915 378.039C689.301 377.967 687.652 377.913 685.984 377.913C684.298 377.913 682.631 377.949 680.999 378.039C682.538 376.039 684.184 374.123 685.93 372.301ZM672.662 382.86C671.783 384.241 670.905 385.66 670.08 387.11C669.255 388.544 668.48 389.979 667.749 391.41C666.781 389.01 665.956 386.605 665.275 384.274C667.623 383.723 670.1 383.239 672.662 382.86ZM656.435 405.309C650.087 402.601 645.981 399.051 645.981 396.236C645.981 393.421 650.087 389.853 656.435 387.163C657.977 386.5 659.663 385.908 661.402 385.352C662.499 389.079 663.847 392.727 665.436 396.272C663.864 399.799 662.534 403.43 661.455 407.138C659.68 406.585 657.994 405.975 656.434 405.312L656.435 405.309ZM666.082 430.932C663.643 429.532 662.582 424.208 663.41 417.358C663.61 415.672 663.93 413.897 664.324 412.086C668.072 412.989 671.876 413.642 675.71 414.04C677.994 417.191 680.486 420.186 683.169 423.005C677.324 428.438 671.837 431.415 668.107 431.415C667.403 431.424 666.707 431.259 666.081 430.935L666.082 430.932ZM708.614 417.269C709.457 424.119 708.414 429.444 705.996 430.861C705.363 431.199 704.651 431.36 703.934 431.327C700.222 431.327 694.718 428.368 688.872 422.971C691.543 420.162 694.017 417.172 696.277 414.024C700.118 413.63 703.927 412.971 707.677 412.052C708.081 413.774 708.394 415.517 708.613 417.272L708.614 417.269ZM715.514 405.309C713.972 405.972 712.286 406.564 710.547 407.12C709.451 403.393 708.103 399.745 706.513 396.2C708.086 392.673 709.416 389.042 710.494 385.334C712.269 385.89 713.955 386.499 715.533 387.163C721.881 389.871 725.987 393.421 725.987 396.236C725.97 399.054 721.864 402.622 715.516 405.312L715.514 405.309Z" fill="#61DAFB"/>
    <path d="M685.966 404.432C690.492 404.432 694.16 400.763 694.16 396.238C694.16 391.713 690.492 388.044 685.966 388.044C681.441 388.044 677.772 391.713 677.772 396.238C677.772 400.763 681.441 404.432 685.966 404.432Z" fill="#61DAFB"/>
  </g>
  <g clip-path="url(#clip1_6_395)">
    <path d="M260.903 470.471C287.912 470.471 309.807 439.473 309.807 401.235C309.807 362.998 287.912 332 260.903 332C233.895 332 212 362.998 212 401.235C212 439.473 233.895 470.471 260.903 470.471Z" fill="#F2F2F2"/>
    <path d="M297.162 475C340.409 475 375.468 472.344 375.468 469.069C375.468 465.793 340.409 463.137 297.162 463.137C253.914 463.137 218.855 465.793 218.855 469.069C218.855 472.344 253.914 475 297.162 475Z" fill="#3F3D56"/>
    <path opacity="0.2" d="M297.01 471.98C335.714 471.98 367.09 469.856 367.09 467.235C367.09 464.615 335.714 462.49 297.01 462.49C258.306 462.49 226.93 464.615 226.93 467.235C226.93 469.856 258.306 471.98 297.01 471.98Z" fill="black"/>
    <path d="M359.929 364.892H231.958V375.677H359.929V364.892Z" fill="#3F3D56"/>
    <path d="M231.958 463.316C231.958 463.93 232.043 464.538 232.209 465.105C232.375 465.672 232.618 466.187 232.924 466.621C233.231 467.055 233.595 467.4 233.996 467.634C234.396 467.869 234.825 467.99 235.259 467.99H356.628C357.061 467.99 357.491 467.869 357.891 467.634C358.292 467.4 358.656 467.055 358.962 466.621C359.269 466.187 359.512 465.672 359.678 465.105C359.844 464.538 359.929 463.93 359.929 463.316V370.284H231.958V463.316Z" fill="#3F3D56"/>
    <path d="M356.628 357.343H235.259C234.825 357.343 234.396 357.464 233.996 357.699C233.595 357.934 233.231 358.278 232.924 358.712C232.618 359.146 232.375 359.661 232.209 360.228C232.043 360.796 231.958 361.403 231.958 362.017V370.284H359.929V362.017C359.929 361.403 359.844 360.796 359.678 360.228C359.512 359.661 359.269 359.146 358.962 358.712C358.656 358.278 358.292 357.934 357.891 357.699C357.491 357.464 357.061 357.343 356.628 357.343Z" fill="#3F3D56"/>
    <path opacity="0.2" d="M356.628 357.343H235.259C234.825 357.343 234.396 357.464 233.996 357.699C233.595 357.934 233.231 358.278 232.924 358.712C232.618 359.146 232.375 359.661 232.209 360.228C232.043 360.796 231.958 361.403 231.958 362.017V370.284H359.929V362.017C359.929 361.403 359.844 360.796 359.678 360.228C359.512 359.661 359.269 359.146 358.962 358.712C358.656 358.278 358.292 357.934 357.891 357.699C357.491 357.464 357.061 357.343 356.628 357.343Z" fill="black"/>
    <path d="M239.575 366.618C240.669 366.618 241.555 365.362 241.555 363.814C241.555 362.265 240.669 361.01 239.575 361.01C238.481 361.01 237.594 362.265 237.594 363.814C237.594 365.362 238.481 366.618 239.575 366.618Z" fill="#3F3D56"/>
    <path d="M245.059 366.618C246.153 366.618 247.04 365.362 247.04 363.814C247.04 362.265 246.153 361.01 245.059 361.01C243.965 361.01 243.079 362.265 243.079 363.814C243.079 365.362 243.965 366.618 245.059 366.618Z" fill="#3F3D56"/>
    <path d="M250.544 366.618C251.638 366.618 252.525 365.362 252.525 363.814C252.525 362.265 251.638 361.01 250.544 361.01C249.45 361.01 248.563 362.265 248.563 363.814C248.563 365.362 249.45 366.618 250.544 366.618Z" fill="#3F3D56"/>
    <path d="M288.122 378.049H238.407C237.958 378.049 237.594 378.564 237.594 379.2V460.153C237.594 460.789 237.958 461.304 238.407 461.304H288.122C288.571 461.304 288.935 460.789 288.935 460.153V379.2C288.935 378.564 288.571 378.049 288.122 378.049Z" fill="#606060"/>
    <path d="M346.298 390.775H304.7C304.239 390.775 303.865 391.303 303.865 391.956V394.338C303.865 394.991 304.239 395.52 304.7 395.52H346.298C346.758 395.52 347.132 394.991 347.132 394.338V391.956C347.132 391.303 346.758 390.775 346.298 390.775Z" fill="#6B6DFF"/>
    <path d="M356.353 408.029H294.645C294.184 408.029 293.811 408.558 293.811 409.211V410.084C293.811 410.736 294.184 411.265 294.645 411.265H356.353C356.813 411.265 357.187 410.736 357.187 410.084V409.211C357.187 408.558 356.813 408.029 356.353 408.029Z" fill="#6B6DFF"/>
    <path d="M356.353 417.52H294.645C294.184 417.52 293.811 418.048 293.811 418.701V419.574C293.811 420.226 294.184 420.755 294.645 420.755H356.353C356.813 420.755 357.187 420.226 357.187 419.574V418.701C357.187 418.048 356.813 417.52 356.353 417.52Z" fill="#6B6DFF"/>
    <path d="M356.353 427.01H294.645C294.184 427.01 293.811 427.539 293.811 428.191V429.064C293.811 429.716 294.184 430.245 294.645 430.245H356.353C356.813 430.245 357.187 429.716 357.187 429.064V428.191C357.187 427.539 356.813 427.01 356.353 427.01Z" fill="#6B6DFF"/>
    <path d="M356.353 436.5H294.645C294.184 436.5 293.811 437.029 293.811 437.681V438.554C293.811 439.206 294.184 439.735 294.645 439.735H356.353C356.813 439.735 357.187 439.206 357.187 438.554V437.681C357.187 437.029 356.813 436.5 356.353 436.5Z" fill="#6B6DFF"/>
    <path d="M356.116 451.167H344.851C344.26 451.167 343.78 451.845 343.78 452.682V455.259C343.78 456.096 344.26 456.774 344.851 456.774H356.116C356.707 456.774 357.187 456.096 357.187 455.259V452.682C357.187 451.845 356.707 451.167 356.116 451.167Z" fill="#6B6DFF"/>
    <path d="M372.437 441.162C372.843 440.161 373.052 439.024 373.044 437.87C373.044 434.894 371.742 432.482 370.137 432.482C368.531 432.482 367.23 434.894 367.23 437.87C367.222 439.024 367.431 440.161 367.836 441.162C367.439 442.168 367.23 443.302 367.23 444.455C367.23 445.608 367.439 446.742 367.836 447.748C367.439 448.754 367.23 449.887 367.23 451.04C367.23 452.193 367.439 453.327 367.836 454.333C367.439 455.339 367.23 456.473 367.23 457.626C367.23 458.779 367.439 459.912 367.836 460.918C367.431 461.92 367.222 463.057 367.23 464.211C367.23 467.187 368.531 469.599 370.137 469.599C371.742 469.599 373.044 467.187 373.044 464.211C373.052 463.057 372.843 461.92 372.437 460.918C372.835 459.912 373.044 458.779 373.044 457.626C373.044 456.473 372.835 455.339 372.437 454.333C372.835 453.327 373.044 452.193 373.044 451.04C373.044 449.887 372.835 448.754 372.437 447.748C372.835 446.742 373.044 445.608 373.044 444.455C373.044 443.302 372.835 442.168 372.437 441.162Z" fill="#3F3D56"/>
    <path d="M370.137 436.672C371.742 436.672 373.044 434.26 373.044 431.284C373.044 428.309 371.742 425.896 370.137 425.896C368.531 425.896 367.229 428.309 367.229 431.284C367.229 434.26 368.531 436.672 370.137 436.672Z" fill="#3F3D56"/>
    <path d="M370.137 430.087C371.742 430.087 373.044 427.675 373.044 424.699C373.044 421.723 371.742 419.311 370.137 419.311C368.531 419.311 367.229 421.723 367.229 424.699C367.229 427.675 368.531 430.087 370.137 430.087Z" fill="#3F3D56"/>
    <path fill-rule="evenodd" clip-rule="evenodd" d="M381.02 379.633C381.417 378.917 381.779 378.163 382.103 377.377L374.464 375.601L382.726 375.688C383.518 373.247 383.95 370.602 383.996 367.916C384.042 365.23 383.7 362.559 382.992 360.066L371.908 368.207L382.13 357.569C381.172 355.226 379.884 353.187 378.345 351.58C376.807 349.973 375.051 348.831 373.187 348.226C371.324 347.622 369.392 347.567 367.513 348.065C365.633 348.563 363.847 349.604 362.264 351.122C360.681 352.641 359.336 354.604 358.313 356.891C357.289 359.177 356.609 361.737 356.315 364.412C356.021 367.087 356.119 369.819 356.603 372.437C357.088 375.056 357.948 377.506 359.13 379.633C358.51 380.747 357.978 381.953 357.541 383.229L367.457 390.522L356.884 385.498C356.142 388.605 355.958 391.925 356.35 395.158C356.742 398.39 357.698 401.434 359.13 404.012C357.514 406.92 356.509 410.413 356.229 414.092C355.95 417.77 356.407 421.486 357.549 424.814C358.691 428.142 360.471 430.948 362.686 432.911C364.901 434.874 367.462 435.915 370.075 435.915C372.688 435.915 375.249 434.874 377.464 432.911C379.679 430.948 381.459 428.142 382.601 424.814C383.743 421.486 384.2 417.77 383.92 414.092C383.641 410.413 382.636 406.92 381.02 404.012C382.951 400.537 384 396.244 384 391.823C384 387.401 382.951 383.108 381.02 379.633Z" fill="#6B6DFF"/>
    <path opacity="0.1" d="M356.149 391.823C356.144 396.245 357.194 400.54 359.129 404.012C357.513 406.92 356.508 410.413 356.229 414.092C355.949 417.77 356.407 421.486 357.548 424.814C358.69 428.142 360.47 430.948 362.685 432.911C364.9 434.874 367.461 435.915 370.074 435.915C372.688 435.915 375.248 434.874 377.463 432.911C379.678 430.948 381.459 428.142 382.6 424.814C383.742 421.486 384.199 417.77 383.92 414.092C383.64 410.413 382.635 406.92 381.02 404.012C382.886 400.657 356.149 389.61 356.149 391.823Z" fill="black"/>
    <path fill-rule="evenodd" clip-rule="evenodd" d="M262.293 405.967H279.276V415.699H262.293V405.967Z" fill="white"/>
    <path fill-rule="evenodd" clip-rule="evenodd" d="M246.927 437.738C246.218 437.738 245.521 437.473 244.907 436.971C244.293 436.469 243.783 435.746 243.429 434.876C243.073 435.746 242.885 436.733 242.884 437.738C242.883 438.743 243.069 439.731 243.424 440.602C243.779 441.473 244.289 442.196 244.904 442.698C245.52 443.2 246.217 443.464 246.927 443.463H250.971V437.738H246.927Z" fill="#6B6DFF"/>
    <path fill-rule="evenodd" clip-rule="evenodd" d="M265.119 407.505L279.276 406.253V403.391C279.276 402.639 279.171 401.894 278.968 401.2C278.765 400.505 278.467 399.874 278.091 399.343C277.716 398.811 277.27 398.389 276.78 398.102C276.289 397.814 275.763 397.666 275.232 397.666H257.036L256.531 396.427C256.48 396.301 256.406 396.197 256.317 396.124C256.229 396.051 256.128 396.013 256.025 396.013C255.923 396.013 255.822 396.051 255.734 396.124C255.645 396.197 255.571 396.301 255.52 396.427L255.015 397.666L254.509 396.427C254.458 396.301 254.384 396.197 254.296 396.124C254.207 396.051 254.106 396.013 254.004 396.013C253.901 396.013 253.801 396.051 253.712 396.124C253.623 396.197 253.549 396.301 253.498 396.427L252.993 397.666L252.487 396.427C252.436 396.301 252.363 396.197 252.274 396.124C252.185 396.051 252.084 396.013 251.982 396.013C251.88 396.013 251.779 396.051 251.69 396.124C251.601 396.197 251.528 396.301 251.477 396.427L250.971 397.666C250.967 397.666 250.963 397.667 250.958 397.667L250.121 396.482C250.048 396.379 249.958 396.305 249.859 396.268C249.76 396.23 249.656 396.23 249.557 396.268C249.458 396.305 249.368 396.379 249.295 396.482C249.223 396.584 249.171 396.712 249.144 396.852L248.868 398.313L247.818 397.914C247.719 397.877 247.615 397.877 247.516 397.914C247.417 397.952 247.327 398.026 247.254 398.128C247.182 398.231 247.13 398.359 247.103 398.499C247.077 398.639 247.077 398.786 247.103 398.926L247.384 400.413L246.353 400.804C246.254 400.842 246.164 400.915 246.091 401.018C246.019 401.12 245.966 401.248 245.94 401.388C245.913 401.528 245.913 401.676 245.94 401.816C245.966 401.956 246.018 402.084 246.091 402.187L246.928 403.372C246.928 403.378 246.928 403.384 246.928 403.391L246.052 404.106C245.963 404.179 245.89 404.283 245.838 404.409C245.787 404.534 245.76 404.677 245.76 404.822C245.76 404.967 245.787 405.109 245.838 405.235C245.89 405.36 245.963 405.465 246.052 405.537L246.928 406.253L246.052 406.968C245.963 407.041 245.89 407.145 245.838 407.271C245.787 407.396 245.76 407.539 245.76 407.684C245.76 407.829 245.787 407.972 245.838 408.097C245.89 408.223 245.963 408.327 246.052 408.4L246.928 409.115L246.052 409.831C245.963 409.903 245.89 410.008 245.838 410.133C245.787 410.259 245.76 410.401 245.76 410.546C245.76 410.691 245.787 410.834 245.838 410.959C245.89 411.085 245.963 411.189 246.052 411.262L246.928 411.977L246.052 412.693C245.963 412.766 245.89 412.87 245.838 412.995C245.787 413.121 245.76 413.264 245.76 413.409C245.76 413.554 245.787 413.696 245.838 413.822C245.89 413.947 245.963 414.052 246.052 414.124L246.928 414.84L246.052 415.555C245.963 415.628 245.89 415.732 245.838 415.858C245.787 415.983 245.76 416.126 245.76 416.271C245.76 416.416 245.787 416.558 245.838 416.684C245.89 416.81 245.963 416.914 246.052 416.987L246.928 417.702L246.052 418.418C245.963 418.49 245.89 418.594 245.838 418.72C245.787 418.846 245.76 418.988 245.76 419.133C245.76 419.278 245.787 419.421 245.838 419.546C245.89 419.672 245.963 419.776 246.052 419.849L246.928 420.564L246.052 421.28C245.963 421.352 245.89 421.457 245.838 421.582C245.787 421.708 245.76 421.851 245.76 421.996C245.76 422.141 245.787 422.283 245.838 422.409C245.89 422.534 245.963 422.639 246.052 422.711L246.928 423.427L246.052 424.142C245.963 424.215 245.89 424.319 245.838 424.445C245.787 424.57 245.76 424.713 245.76 424.858C245.76 425.003 245.787 425.145 245.838 425.271C245.89 425.397 245.963 425.501 246.052 425.573L246.928 426.289L246.052 427.005C245.963 427.077 245.89 427.181 245.838 427.307C245.787 427.433 245.76 427.575 245.76 427.72C245.76 427.865 245.787 428.008 245.838 428.133C245.89 428.259 245.963 428.363 246.052 428.436L246.928 429.151L246.052 429.867C245.963 429.939 245.89 430.044 245.838 430.169C245.787 430.295 245.76 430.437 245.76 430.583C245.76 430.728 245.787 430.87 245.838 430.996C245.89 431.121 245.963 431.226 246.052 431.298L246.928 432.014L246.052 432.729C245.963 432.802 245.89 432.906 245.838 433.032C245.787 433.157 245.76 433.3 245.76 433.445C245.76 433.59 245.787 433.732 245.838 433.858C245.89 433.984 245.963 434.088 246.052 434.16L246.928 434.876L246.052 435.592C245.963 435.664 245.89 435.768 245.838 435.894C245.787 436.02 245.76 436.162 245.76 436.307C245.76 436.452 245.787 436.595 245.838 436.72C245.89 436.846 245.963 436.95 246.052 437.023L246.928 437.738C246.928 438.49 247.032 439.234 247.235 439.929C247.439 440.624 247.736 441.255 248.112 441.786C248.487 442.318 248.933 442.739 249.424 443.027C249.914 443.315 250.44 443.463 250.971 443.463H275.232C275.763 443.463 276.289 443.315 276.78 443.027C277.27 442.739 277.716 442.318 278.091 441.786C278.467 441.255 278.765 440.624 278.968 439.929C279.171 439.234 279.276 438.49 279.276 437.738V414.84L265.119 413.587C264.573 413.539 264.06 413.197 263.685 412.632C263.31 412.067 263.102 411.321 263.102 410.546C263.102 409.771 263.31 409.025 263.685 408.46C264.06 407.895 264.573 407.554 265.119 407.505Z" fill="#6B6DFF"/>
    <path fill-rule="evenodd" clip-rule="evenodd" d="M271.188 443.463H277.254V432.014H271.188V443.463Z" fill="#6B6DFF"/>
    <path fill-rule="evenodd" clip-rule="evenodd" d="M281.297 436.307C281.254 436.309 281.211 436.315 281.168 436.325C281.16 436.283 281.153 436.239 281.145 436.196C281.278 436.119 281.398 436.002 281.496 435.854C281.595 435.706 281.67 435.529 281.717 435.336C281.763 435.144 281.78 434.939 281.766 434.736C281.752 434.533 281.708 434.337 281.636 434.161C281.564 433.984 281.467 433.831 281.35 433.713C281.233 433.594 281.099 433.512 280.958 433.472C280.817 433.432 280.672 433.436 280.531 433.482C280.391 433.529 280.26 433.617 280.146 433.741C280.123 433.709 280.101 433.677 280.078 433.645C280.164 433.483 280.224 433.298 280.255 433.101C280.286 432.903 280.288 432.699 280.259 432.501C280.23 432.303 280.172 432.116 280.088 431.952C280.005 431.788 279.898 431.651 279.774 431.551C279.65 431.45 279.513 431.387 279.371 431.367C279.229 431.347 279.085 431.37 278.95 431.434C278.815 431.498 278.69 431.602 278.586 431.739C278.481 431.876 278.398 432.044 278.342 432.229C278.312 432.217 278.282 432.207 278.252 432.197C278.276 431.992 278.268 431.782 278.229 431.581C278.19 431.381 278.12 431.195 278.025 431.036C277.93 430.878 277.812 430.751 277.679 430.663C277.546 430.576 277.401 430.531 277.254 430.531C277.107 430.531 276.962 430.576 276.829 430.663C276.696 430.751 276.577 430.878 276.482 431.036C276.387 431.195 276.318 431.381 276.279 431.581C276.24 431.782 276.232 431.992 276.256 432.197C276.226 432.207 276.196 432.217 276.166 432.229C276.11 432.043 276.028 431.874 275.923 431.736C275.818 431.598 275.693 431.493 275.558 431.428C275.422 431.364 275.278 431.34 275.136 431.36C274.993 431.38 274.855 431.443 274.731 431.544C274.607 431.645 274.499 431.783 274.416 431.947C274.332 432.112 274.274 432.3 274.245 432.498C274.217 432.697 274.219 432.902 274.25 433.1C274.282 433.298 274.343 433.483 274.43 433.645C273.983 434.262 273.643 435.017 273.437 435.852C273.231 436.686 273.164 437.576 273.241 438.453C273.319 439.33 273.539 440.169 273.884 440.906C274.23 441.642 274.691 442.255 275.231 442.697C275.772 443.139 276.377 443.397 277 443.452C277.623 443.507 278.247 443.357 278.822 443.013C279.397 442.67 279.908 442.142 280.315 441.472C280.722 440.802 281.014 440.008 281.168 439.151C281.305 439.177 281.444 439.162 281.577 439.108C281.71 439.054 281.833 438.963 281.94 438.838C282.047 438.714 282.134 438.56 282.197 438.386C282.26 438.212 282.297 438.022 282.306 437.827C282.315 437.632 282.295 437.436 282.249 437.252C282.202 437.068 282.129 436.9 282.035 436.757C281.94 436.615 281.826 436.501 281.699 436.424C281.572 436.346 281.435 436.307 281.297 436.307Z" fill="#E969D4"/>
    <path fill-rule="evenodd" clip-rule="evenodd" d="M273.21 426.289H279.276V420.564H273.21V426.289Z" fill="#6B6DFF"/>
    <path fill-rule="evenodd" clip-rule="evenodd" d="M281.297 424.142C281.431 424.142 281.56 424.067 281.655 423.933C281.749 423.799 281.803 423.617 281.803 423.427C281.803 423.237 281.749 423.055 281.655 422.921C281.56 422.787 281.431 422.711 281.297 422.711C281.276 422.712 281.254 422.715 281.233 422.72C281.229 422.699 281.225 422.677 281.221 422.656C281.329 422.592 281.417 422.477 281.472 422.331C281.527 422.185 281.544 422.017 281.521 421.855C281.498 421.693 281.436 421.548 281.346 421.443C281.256 421.338 281.143 421.28 281.026 421.28C280.916 421.28 280.809 421.333 280.721 421.428C280.71 421.412 280.699 421.396 280.687 421.38C280.754 421.257 280.789 421.107 280.79 420.953C280.79 420.788 280.749 420.628 280.676 420.5C280.602 420.372 280.499 420.285 280.385 420.252C280.271 420.219 280.152 420.243 280.049 420.319C279.946 420.396 279.865 420.521 279.819 420.672C279.519 420.552 279.202 420.532 278.895 420.614C278.588 420.696 278.299 420.877 278.05 421.144C277.8 421.411 277.598 421.756 277.459 422.152C277.32 422.548 277.248 422.984 277.248 423.427C277.248 423.869 277.32 424.305 277.459 424.701C277.598 425.098 277.8 425.443 278.05 425.709C278.299 425.976 278.588 426.158 278.895 426.24C279.202 426.321 279.519 426.301 279.819 426.181C279.865 426.333 279.946 426.458 280.049 426.534C280.152 426.611 280.271 426.635 280.385 426.602C280.499 426.569 280.602 426.481 280.676 426.353C280.749 426.226 280.79 426.066 280.79 425.901C280.789 425.746 280.754 425.596 280.687 425.473C280.699 425.458 280.71 425.442 280.721 425.425C280.809 425.521 280.916 425.573 281.026 425.573C281.143 425.573 281.256 425.516 281.347 425.411C281.437 425.307 281.499 425.161 281.522 424.998C281.545 424.836 281.527 424.668 281.472 424.522C281.418 424.376 281.329 424.261 281.221 424.198C281.225 424.176 281.229 424.155 281.233 424.133C281.254 424.138 281.276 424.141 281.297 424.142Z" fill="#E969D4"/>
    <path fill-rule="evenodd" clip-rule="evenodd" d="M255.015 406.969C254.881 406.969 254.752 406.893 254.657 406.759C254.563 406.625 254.509 406.443 254.509 406.253C254.509 405.684 254.35 405.138 254.065 404.735C253.781 404.332 253.395 404.106 252.993 404.106C252.591 404.106 252.205 404.332 251.921 404.735C251.636 405.138 251.477 405.684 251.477 406.253C251.477 406.347 251.464 406.44 251.438 406.527C251.413 406.614 251.376 406.693 251.329 406.76C251.282 406.826 251.226 406.879 251.165 406.915C251.104 406.951 251.038 406.97 250.971 406.97C250.905 406.97 250.839 406.951 250.778 406.915C250.716 406.879 250.66 406.826 250.614 406.76C250.567 406.693 250.529 406.614 250.504 406.527C250.479 406.44 250.466 406.347 250.466 406.253C250.466 405.304 250.732 404.394 251.206 403.723C251.68 403.052 252.323 402.675 252.993 402.675C253.663 402.675 254.306 403.052 254.78 403.723C255.254 404.394 255.52 405.304 255.52 406.253C255.52 406.443 255.467 406.625 255.372 406.759C255.277 406.893 255.149 406.969 255.015 406.969Z" fill="black"/>
    <path fill-rule="evenodd" clip-rule="evenodd" d="M263.102 443.463H275.232C275.763 443.463 276.289 443.315 276.779 443.027C277.27 442.74 277.716 442.318 278.091 441.786C278.467 441.255 278.765 440.624 278.968 439.929C279.171 439.235 279.276 438.49 279.276 437.738V417.702H267.145C266.614 417.702 266.088 417.85 265.598 418.138C265.107 418.426 264.661 418.847 264.286 419.379C263.91 419.91 263.613 420.541 263.409 421.236C263.206 421.931 263.102 422.675 263.102 423.427V443.463Z" fill="#FFFF50"/>
    <path fill-rule="evenodd" clip-rule="evenodd" d="M276.247 426.575H266.13C266.077 426.575 266.025 426.545 265.987 426.491C265.949 426.438 265.928 426.365 265.928 426.289C265.928 426.213 265.949 426.14 265.987 426.087C266.025 426.033 266.077 426.003 266.13 426.003H276.247C276.301 426.003 276.352 426.033 276.39 426.087C276.428 426.14 276.449 426.213 276.449 426.289C276.449 426.365 276.428 426.438 276.39 426.491C276.352 426.545 276.301 426.575 276.247 426.575ZM276.247 432.3H266.13C266.077 432.3 266.025 432.27 265.987 432.216C265.949 432.162 265.928 432.09 265.928 432.014C265.928 431.938 265.949 431.865 265.987 431.811C266.025 431.758 266.077 431.727 266.13 431.727H276.247C276.301 431.727 276.352 431.758 276.39 431.811C276.428 431.865 276.449 431.938 276.449 432.014C276.449 432.09 276.428 432.162 276.39 432.216C276.352 432.27 276.301 432.3 276.247 432.3ZM276.247 438.025H266.13C266.104 438.025 266.077 438.017 266.053 438.003C266.028 437.988 266.006 437.967 265.987 437.941C265.968 437.914 265.954 437.883 265.943 437.848C265.933 437.813 265.928 437.776 265.928 437.738C265.928 437.701 265.933 437.664 265.943 437.629C265.954 437.594 265.968 437.563 265.987 437.536C266.006 437.509 266.028 437.488 266.053 437.474C266.077 437.46 266.104 437.452 266.13 437.452H276.247C276.301 437.452 276.352 437.482 276.39 437.536C276.428 437.59 276.449 437.662 276.449 437.738C276.449 437.814 276.428 437.887 276.39 437.941C276.352 437.994 276.301 438.025 276.247 438.025ZM276.247 423.766H266.13C266.077 423.766 266.025 423.736 265.987 423.682C265.949 423.629 265.928 423.556 265.928 423.48C265.928 423.404 265.949 423.331 265.987 423.278C266.025 423.224 266.077 423.194 266.13 423.194H276.247C276.301 423.194 276.352 423.224 276.39 423.278C276.428 423.331 276.449 423.404 276.449 423.48C276.449 423.556 276.428 423.629 276.39 423.682C276.352 423.736 276.301 423.766 276.247 423.766ZM276.247 429.438H266.13C266.077 429.438 266.025 429.407 265.987 429.354C265.949 429.3 265.928 429.227 265.928 429.151C265.928 429.075 265.949 429.003 265.987 428.949C266.025 428.895 266.077 428.865 266.13 428.865H276.247C276.301 428.865 276.352 428.895 276.39 428.949C276.428 429.003 276.449 429.075 276.449 429.151C276.449 429.227 276.428 429.3 276.39 429.354C276.352 429.407 276.301 429.438 276.247 429.438ZM276.247 435.162H266.13C266.077 435.162 266.025 435.132 265.987 435.078C265.949 435.025 265.928 434.952 265.928 434.876C265.928 434.8 265.949 434.727 265.987 434.674C266.025 434.62 266.077 434.59 266.13 434.59H276.247C276.301 434.59 276.352 434.62 276.39 434.674C276.428 434.727 276.449 434.8 276.449 434.876C276.449 434.952 276.428 435.025 276.39 435.078C276.352 435.132 276.301 435.162 276.247 435.162ZM279.276 408.718C279.273 408.718 279.271 408.716 279.269 408.716C278.644 408.746 278.348 409.631 278.088 410.412C277.816 411.227 277.605 411.758 277.26 411.742C276.878 411.722 276.66 411.111 276.429 410.465C276.163 409.723 275.86 408.881 275.223 408.912C274.607 408.942 274.311 409.712 274.049 410.391C273.771 411.115 273.581 411.554 273.216 411.534C272.826 411.514 272.619 411.018 272.38 410.443C272.113 409.803 271.804 409.083 271.18 409.108C270.574 409.137 270.277 409.79 270.014 410.367C269.737 410.977 269.542 411.348 269.172 411.326C268.773 411.306 268.567 410.894 268.329 410.417C268.061 409.881 267.76 409.274 267.137 409.304C266.545 409.332 266.248 409.867 265.986 410.339C265.737 410.787 265.542 411.141 265.131 411.119C265.104 411.117 265.078 411.124 265.053 411.137C265.028 411.15 265.005 411.17 264.985 411.195C264.966 411.221 264.95 411.252 264.939 411.286C264.928 411.32 264.922 411.357 264.921 411.395C264.92 411.432 264.924 411.47 264.934 411.505C264.943 411.54 264.957 411.573 264.975 411.6C264.993 411.628 265.015 411.65 265.039 411.666C265.063 411.681 265.09 411.69 265.116 411.691C265.726 411.72 266.035 411.176 266.303 410.693C266.541 410.265 266.747 409.896 267.151 409.876C267.54 409.853 267.723 410.195 267.999 410.748C268.261 411.273 268.559 411.868 269.158 411.899C269.785 411.928 270.087 411.265 270.354 410.677C270.593 410.152 270.799 409.699 271.193 409.68C271.556 409.661 271.753 410.066 272.031 410.734C272.294 411.362 272.591 412.075 273.201 412.106C273.833 412.137 274.138 411.356 274.404 410.665C274.634 410.068 274.852 409.503 275.237 409.484C275.599 409.472 275.788 409.941 276.068 410.724C276.329 411.454 276.625 412.282 277.246 412.314L277.28 412.315C277.899 412.315 278.193 411.435 278.453 410.656C278.684 409.966 278.902 409.317 279.276 409.29V408.718Z" fill="black"/>
    <path fill-rule="evenodd" clip-rule="evenodd" d="M259.058 443.463H267.145V432.014H259.058V443.463Z" fill="#6B6DFF"/>
    <path fill-rule="evenodd" clip-rule="evenodd" d="M271.188 436.307C271.145 436.309 271.102 436.315 271.059 436.325C271.052 436.283 271.044 436.239 271.036 436.196C271.169 436.119 271.289 436.002 271.388 435.854C271.486 435.706 271.561 435.529 271.608 435.336C271.654 435.144 271.671 434.939 271.657 434.736C271.644 434.533 271.599 434.337 271.527 434.161C271.455 433.984 271.358 433.831 271.241 433.713C271.124 433.594 270.99 433.512 270.849 433.472C270.708 433.433 270.563 433.436 270.423 433.482C270.282 433.529 270.151 433.617 270.037 433.741C270.014 433.709 269.992 433.677 269.969 433.645C270.055 433.483 270.115 433.298 270.146 433.101C270.177 432.903 270.179 432.699 270.15 432.501C270.121 432.303 270.063 432.116 269.98 431.952C269.896 431.788 269.789 431.651 269.665 431.551C269.541 431.45 269.404 431.387 269.262 431.367C269.12 431.347 268.976 431.37 268.841 431.434C268.706 431.498 268.582 431.602 268.477 431.739C268.372 431.876 268.289 432.044 268.233 432.23C268.203 432.217 268.173 432.207 268.143 432.197C268.167 431.992 268.159 431.782 268.12 431.581C268.081 431.381 268.011 431.195 267.916 431.036C267.821 430.878 267.703 430.751 267.57 430.663C267.437 430.576 267.292 430.531 267.145 430.531C266.998 430.531 266.853 430.576 266.72 430.663C266.587 430.751 266.468 430.878 266.373 431.036C266.279 431.195 266.209 431.381 266.17 431.581C266.131 431.782 266.123 431.992 266.147 432.197C266.117 432.207 266.087 432.217 266.057 432.23C266.002 432.043 265.919 431.874 265.814 431.736C265.709 431.598 265.585 431.493 265.449 431.428C265.313 431.364 265.169 431.34 265.027 431.36C264.884 431.38 264.746 431.443 264.622 431.544C264.498 431.645 264.391 431.783 264.307 431.947C264.223 432.112 264.165 432.3 264.137 432.498C264.108 432.697 264.11 432.902 264.141 433.1C264.173 433.298 264.234 433.483 264.321 433.645C263.874 434.262 263.534 435.017 263.328 435.852C263.122 436.686 263.055 437.576 263.132 438.453C263.21 439.33 263.43 440.169 263.775 440.906C264.121 441.642 264.582 442.255 265.122 442.697C265.663 443.139 266.269 443.397 266.892 443.452C267.515 443.507 268.138 443.357 268.713 443.013C269.288 442.67 269.8 442.142 270.207 441.472C270.614 440.802 270.905 440.008 271.059 439.151C271.196 439.177 271.335 439.162 271.468 439.108C271.601 439.054 271.724 438.963 271.831 438.838C271.938 438.714 272.025 438.56 272.088 438.386C272.151 438.212 272.188 438.022 272.197 437.827C272.206 437.632 272.187 437.436 272.14 437.252C272.093 437.068 272.02 436.9 271.926 436.757C271.831 436.615 271.717 436.501 271.59 436.424C271.463 436.346 271.327 436.307 271.188 436.307Z" fill="#E969D4"/>
    <path fill-rule="evenodd" clip-rule="evenodd" d="M259.058 426.289H267.145V420.564H259.058V426.289Z" fill="#6B6DFF"/>
    <path fill-rule="evenodd" clip-rule="evenodd" d="M269.167 424.142C269.301 424.142 269.429 424.067 269.524 423.933C269.619 423.799 269.672 423.617 269.672 423.427C269.672 423.237 269.619 423.055 269.524 422.921C269.429 422.787 269.301 422.711 269.167 422.711C269.145 422.712 269.124 422.715 269.102 422.72C269.098 422.699 269.095 422.677 269.091 422.656C269.198 422.592 269.287 422.477 269.342 422.331C269.396 422.185 269.414 422.017 269.391 421.855C269.368 421.693 269.306 421.548 269.216 421.443C269.126 421.338 269.013 421.28 268.896 421.28C268.785 421.28 268.678 421.333 268.591 421.428C268.58 421.412 268.569 421.396 268.557 421.38C268.623 421.257 268.659 421.107 268.659 420.953C268.659 420.788 268.619 420.628 268.545 420.5C268.472 420.372 268.369 420.285 268.255 420.252C268.141 420.219 268.022 420.243 267.919 420.319C267.816 420.396 267.735 420.521 267.689 420.672C267.388 420.552 267.072 420.532 266.765 420.614C266.458 420.696 266.168 420.877 265.919 421.144C265.67 421.411 265.468 421.756 265.329 422.152C265.19 422.548 265.117 422.984 265.117 423.427C265.117 423.869 265.19 424.305 265.329 424.701C265.468 425.098 265.67 425.443 265.919 425.709C266.168 425.976 266.458 426.158 266.765 426.24C267.072 426.321 267.388 426.301 267.689 426.181C267.735 426.333 267.816 426.458 267.919 426.534C268.022 426.611 268.141 426.635 268.255 426.602C268.369 426.569 268.472 426.481 268.545 426.353C268.619 426.226 268.659 426.066 268.659 425.901C268.659 425.746 268.623 425.596 268.557 425.473C268.569 425.458 268.58 425.442 268.591 425.425C268.678 425.521 268.785 425.573 268.896 425.573C269.013 425.573 269.126 425.516 269.216 425.411C269.307 425.307 269.368 425.161 269.391 424.998C269.414 424.836 269.397 424.668 269.342 424.522C269.287 424.376 269.198 424.261 269.091 424.198C269.095 424.176 269.098 424.155 269.102 424.133C269.124 424.138 269.145 424.141 269.167 424.142Z" fill="#E969D4"/>
    <path fill-rule="evenodd" clip-rule="evenodd" d="M271.189 403.033C271.155 403.032 271.122 403.028 271.089 403.019C271.057 403.01 271.025 402.996 270.994 402.978C270.964 402.96 270.935 402.938 270.907 402.913C270.88 402.885 270.855 402.856 270.83 402.824C270.808 402.79 270.787 402.754 270.768 402.715C270.712 402.598 270.683 402.459 270.683 402.317C270.683 402.27 270.687 402.223 270.693 402.177C270.7 402.131 270.709 402.086 270.721 402.042C270.734 401.999 270.75 401.958 270.768 401.919C270.804 401.841 270.852 401.774 270.907 401.722C270.935 401.696 270.964 401.674 270.994 401.656C271.025 401.638 271.057 401.625 271.089 401.616C271.155 401.596 271.222 401.596 271.288 401.616C271.353 401.634 271.415 401.67 271.47 401.722C271.497 401.749 271.522 401.779 271.546 401.811C271.569 401.845 271.59 401.881 271.609 401.919C271.627 401.958 271.643 401.999 271.656 402.042C271.68 402.13 271.693 402.223 271.694 402.317C271.693 402.507 271.64 402.689 271.546 402.824C271.522 402.856 271.497 402.885 271.47 402.913C271.386 402.991 271.289 403.033 271.189 403.033ZM275.232 402.675C275.098 402.674 274.97 402.599 274.874 402.466C274.852 402.432 274.831 402.395 274.812 402.357C274.756 402.24 274.726 402.101 274.727 401.959C274.727 401.77 274.78 401.588 274.874 401.453C274.898 401.421 274.924 401.391 274.951 401.364C274.978 401.338 275.008 401.316 275.038 401.298C275.069 401.281 275.1 401.267 275.133 401.258C275.198 401.238 275.266 401.238 275.331 401.258C275.396 401.276 275.458 401.312 275.513 401.364C275.54 401.391 275.566 401.421 275.59 401.453C275.684 401.588 275.737 401.77 275.738 401.959C275.737 402.007 275.734 402.053 275.727 402.1C275.721 402.146 275.712 402.191 275.699 402.234C275.686 402.277 275.67 402.318 275.653 402.357C275.633 402.396 275.612 402.432 275.59 402.466C275.566 402.498 275.54 402.528 275.513 402.555C275.43 402.634 275.332 402.675 275.232 402.675Z" fill="black"/>
  </g>
  <defs>
    <clipPath id="clip0_6_395">
      <rect width="1041.28" height="554.141" fill="white" transform="translate(0 0.5)"/>
    </clipPath>
    <clipPath id="clip1_6_395">
      <rect width="172" height="143" fill="white" transform="translate(212 332)"/>
    </clipPath>
  </defs>
</svg>